<svg width="545" height="545" fill="none" xmlns="http://www.w3.org/2000/svg"><circle cx="272.5" cy="272.5" r="272.5" fill="#884DC9"/><circle cx="272.5" cy="272.5" r="272.5" fill="url(#paint0_linear)"/><circle cx="273" cy="272" r="168" fill="#A450E9"/><circle cx="273" cy="272" r="168" fill="url(#paint1_linear)"/><path fill-rule="evenodd" clip-rule="evenodd" d="M143 228.925h23.459v22.203h-1.256c-12.262 0-22.203-9.941-22.203-22.203z" fill="#24D37F"/><path fill-rule="evenodd" clip-rule="evenodd" d="M150.938 240.026h23.459v22.203h-1.256c-12.263 0-22.203-9.941-22.203-22.203z" fill="#6AFDB7"/><path fill-rule="evenodd" clip-rule="evenodd" d="M402.759 228.925H379.3v22.203h1.256c12.262 0 22.203-9.941 22.203-22.203z" fill="#24D37F"/><path fill-rule="evenodd" clip-rule="evenodd" d="M394.821 240.026h-23.459v22.203h1.256c12.263 0 22.203-9.941 22.203-22.203z" fill="#6AFDB7"/><path fill-rule="evenodd" clip-rule="evenodd" d="M377.635 392.578c0 9.798-46.601 17.74-104.085 17.74-57.484 0-104.084-7.942-104.084-17.74 0-9.797 46.6-17.739 104.084-17.739s104.085 7.942 104.085 17.739" fill="#007538"/><path fill-rule="evenodd" clip-rule="evenodd" d="M377.635 392.578c0 9.798-46.601 17.74-104.085 17.74-57.484 0-104.084-7.942-104.084-17.74 0-9.797 46.6-17.739 104.084-17.739s104.085 7.942 104.085 17.739" fill="url(#paint2_linear)"/><path fill-rule="evenodd" clip-rule="evenodd" d="M357.333 315.882l-18.317 18.961a4.882 4.882 0 0 0-1.325 4.068l2.99 21.408a4.895 4.895 0 0 1-4.005 5.491l-21.349 3.768a4.908 4.908 0 0 0-3.477 2.519l-10.18 19.079a4.915 4.915 0 0 1-6.482 2.099l-19.487-9.473a4.921 4.921 0 0 0-4.302 0l-19.486 9.473a4.916 4.916 0 0 1-6.483-2.099l-10.18-19.079a4.908 4.908 0 0 0-3.477-2.519l-21.349-3.768a4.895 4.895 0 0 1-4.005-5.491l2.991-21.408a4.883 4.883 0 0 0-1.326-4.068l-18.317-18.961" fill="#FF8B00"/><path fill-rule="evenodd" clip-rule="evenodd" d="M338.169 315.882l-16.415 12.732a4.883 4.883 0 0 0-1.701 5.219l4.023 13.88c.888 3.065-1.357 6.144-4.555 6.247l-14.486.467a4.906 4.906 0 0 0-4.457 3.23l-4.913 13.584c-1.086 3.004-4.722 4.182-7.371 2.388l-11.988-8.114a4.92 4.92 0 0 0-5.512 0l-11.987 8.114c-2.65 1.794-6.286.616-7.371-2.388l-4.914-13.584a4.906 4.906 0 0 0-4.457-3.23l-14.485-.467c-3.199-.103-5.444-3.182-4.556-6.247l4.023-13.879a4.882 4.882 0 0 0-1.701-5.219l-16.414-12.733" fill="#FFDF5A"/><path fill-rule="evenodd" clip-rule="evenodd" d="M312.125 315.882l-12.075 4.581c-2.926 1.11-4.075 4.633-2.362 7.248l.012.018c2.467 3.764-1.04 8.574-5.393 7.396l-.02-.005c-3.024-.819-6.033 1.361-6.186 4.482-.22 4.494-5.896 6.333-8.724 2.826l-.003-.003c-1.964-2.435-5.684-2.435-7.648 0l-.002.004c-2.829 3.506-8.505 1.668-8.725-2.827-.153-3.121-3.161-5.301-6.186-4.482l-.02.005c-4.353 1.178-7.861-3.632-5.393-7.397l.012-.018c1.713-2.614.565-6.137-2.363-7.247l-12.073-4.581" fill="#FFED9F"/><mask id="a" maskUnits="userSpaceOnUse" x="165" y="391" width="217" height="75"><path fill-rule="evenodd" clip-rule="evenodd" d="M165.984 465.948h215.132v-74.114H165.984v74.114z" fill="#fff"/></mask><g mask="url(#a)" fill-rule="evenodd" clip-rule="evenodd"><path d="M273.55 409.955c-46.564 0-86.37-7.288-102.456-17.586-2.488-1.594-5.694.618-5.018 3.425 12.449 51.664 55.844 70.154 107.474 70.154s95.025-18.49 107.474-70.154c.677-2.807-2.53-5.019-5.017-3.425-16.087 10.298-55.893 17.586-102.457 17.586" fill="#24D37F"/><path d="M273.55 409.955c-46.564 0-86.37-7.288-102.456-17.586-2.488-1.594-5.694.618-5.018 3.425 12.449 51.664 55.844 70.154 107.474 70.154s95.025-18.49 107.474-70.154c.677-2.807-2.53-5.019-5.017-3.425-16.087 10.298-55.893 17.586-102.457 17.586" fill="url(#paint3_linear)"/></g><mask id="b" maskUnits="userSpaceOnUse" x="166" y="79" width="216" height="252"><path fill-rule="evenodd" clip-rule="evenodd" d="M381.072 79H166.029v251.137h215.043V79z" fill="#fff"/></mask><g mask="url(#b)" fill-rule="evenodd" clip-rule="evenodd"><path d="M381.072 189.882c0 5.517-.339 106.611-.983 111.931-.124 1.03-.261 2.055-.408 3.077-4.862 14.153-50.517 25.247-106.13 25.247-55.613 0-101.268-11.094-106.13-25.248a133.822 133.822 0 0 1-.409-3.076c-.643-5.319-.983-106.414-.983-111.931 0-66.398 48.14-110.883 107.522-110.883 59.382 0 107.521 44.485 107.521 110.883" fill="#24D37F"/><path d="M381.072 189.882c0 5.517-.339 106.611-.983 111.931-.124 1.03-.261 2.055-.408 3.077-4.862 14.153-50.517 25.247-106.13 25.247-55.613 0-101.268-11.094-106.13-25.248a133.822 133.822 0 0 1-.409-3.076c-.643-5.319-.983-106.414-.983-111.931 0-66.398 48.14-110.883 107.522-110.883 59.382 0 107.521 44.485 107.521 110.883" fill="url(#paint4_linear)"/></g><path fill-rule="evenodd" clip-rule="evenodd" d="M206.159 299.356c0 2.4-1.12 3.689-3.556 5.768-.895.772-1.79 1.538-2.683 2.3v.07c2.158.601 4.321 1.175 6.49 1.723v3.033a274.72 274.72 0 0 1-10.504-2.875v-2.94c1.17-1.062 2.34-2.132 3.514-3.21 2.066-1.871 3.275-2.859 3.274-4.585 0-1.12-.593-1.929-1.843-2.273-1.455-.4-2.022.345-2.248 1.868a330.047 330.047 0 0 1-3.082-1.431c.385-3.223 2.624-3.953 5.672-3.119 3.274.892 4.966 2.891 4.966 5.671m3.152-3.28c2.905.7 5.819 1.352 8.741 1.955v3.032a272.75 272.75 0 0 1-6.222-1.361l-.39 4.133c.71-.465 1.696-.728 3.165-.404 2.455.541 4.413 2.403 4.413 6.089.001 3.682-2.35 5.414-5.95 4.602-2.661-.6-4.992-2.274-5.403-5.617.998.036 1.997.067 2.997.093.183 1.372.847 2.395 2.406 2.748 1.329.301 2.502-.333 2.501-2.409 0-2.077-1.08-2.822-2.203-3.075-.987-.223-1.811.1-2.429.561a379.03 379.03 0 0 1-2.243-1.492l.617-8.855m39.439 23.394v-12.691c-.793.351-2.841.454-3.609.372l-.164-3.003c2.072.053 3.75-.354 4.868-1.47.801.069 1.601.135 2.402.197v16.89a292.52 292.52 0 0 1-3.497-.295m7.929-16.286c2.964.182 5.93.317 8.897.404v3.032a278.63 278.63 0 0 1-6.329-.257l-.397 4.201c.723-.591 1.727-1.028 3.222-.965 2.499.105 4.487 1.619 4.486 5.306 0 3.682-2.383 5.83-6.05 5.658-2.709-.128-5.09-1.385-5.509-4.657 1.019-.141 2.038-.287 3.057-.439.186 1.338.863 2.243 2.452 2.32 1.354.064 2.546-.778 2.546-2.854s-1.099-2.63-2.243-2.684c-1.003-.047-1.845.422-2.475.993a339.1 339.1 0 0 1-2.287-1.093l.63-8.965m39.844 16.446v-12.691c-.792.49-2.844.952-3.615 1.003l-.163-2.974c2.076-.309 3.755-1.01 4.873-2.322.8-.07 1.6-.144 2.4-.222v16.89c-1.165.113-2.33.218-3.495.316m14.955-10.209c0-4.2-.37-5.823-2.251-5.574-1.904.248-2.439 1.964-2.439 6.257 0 4.197.419 5.949 2.346 5.699 1.881-.248 2.344-2.068 2.344-6.382m-8.434 1.091c-.002-5.584 1.607-8.851 6.229-9.448 4.666-.624 5.914 2.299 5.915 7.673-.001 5.8-1.504 9.214-6.147 9.83-4.622.592-5.998-2.465-5.997-8.055m38.96-15.487a272.21 272.21 0 0 0 8.661-2.385v3.033c-2.047.6-4.099 1.175-6.154 1.726l-.387 4.325c.705-.817 1.684-1.57 3.138-1.975 2.43-.678 4.353.215 4.353 3.902-.001 3.683-2.305 6.576-5.876 7.552-2.637.722-4.967.21-5.378-2.929.997-.461 1.994-.927 2.988-1.399.183 1.281.844 1.974 2.39 1.553 1.319-.36 2.477-1.575 2.477-3.651 0-2.076-1.066-2.287-2.181-1.982-.978.267-1.798.999-2.412 1.769a359.04 359.04 0 0 1-2.234-.376l.615-9.163m-116.934 21.25c-.319-.057-.638-.114-.957-.173a.695.695 0 0 1-.555-.652v-7.205c0-.303.249-.504.555-.448l.957.173a.69.69 0 0 1 .554.65v7.204c.001.304-.248.506-.554.451m6.8 1.133c-.32-.049-.64-.098-.96-.149a.674.674 0 0 1-.556-.639v-7.204c0-.303.249-.511.556-.462l.96.149a.67.67 0 0 1 .557.635v7.204c0 .304-.249.513-.557.466m6.82.961l-.963-.125a.651.651 0 0 1-.557-.625v-7.204c0-.304.249-.516.557-.476.321.043.643.085.963.125a.65.65 0 0 1 .558.622v7.204c0 .304-.25.519-.558.479m34.669 2.224l-.969-.002a.56.56 0 0 1-.562-.553v-7.204c0-.305.252-.549.562-.548l.969.002a.557.557 0 0 1 .561.55v7.205c0 .304-.251.55-.561.55m6.871-.082c-.323.008-.646.016-.969.022a.542.542 0 0 1-.561-.539v-7.204c0-.304.251-.555.561-.561.323-.007.646-.014.969-.023a.54.54 0 0 1 .561.536v7.205a.573.573 0 0 1-.561.564m6.868-.252c-.323.016-.645.031-.968.045a.525.525 0 0 1-.561-.524v-7.205c0-.304.252-.561.561-.575.323-.015.645-.03.968-.047a.525.525 0 0 1 .561.523v7.204a.59.59 0 0 1-.561.579m34.554-3.916l-.958.169c-.306.053-.555-.15-.555-.455v-7.204c0-.304.249-.593.555-.646l.958-.169c.306-.055.554.146.554.451v7.204a.69.69 0 0 1-.554.65m6.778-1.296l-.954.194c-.306.061-.554-.137-.553-.44v-7.204c-.001-.305.247-.6.553-.662.318-.063.635-.128.954-.193.306-.061.551.133.552.437v7.205a.711.711 0 0 1-.552.663m6.751-1.467l-.95.218c-.304.07-.55-.122-.55-.426v-7.204c0-.304.245-.606.55-.675.317-.072.633-.144.95-.218.304-.07.55.12.551.423v7.205a.734.734 0 0 1-.551.677m21.343-5.839l-.935.295c-.299.094-.541-.078-.541-.381v-7.204c0-.304.242-.626.541-.719l.935-.296c.3-.095.541.074.541.379v7.204c0 .304-.241.628-.541.722m6.604-2.189c-.309.107-.619.214-.928.319-.297.102-.539-.063-.539-.367V298.3c.001-.303.241-.632.539-.733l.928-.32c.298-.102.538.06.537.364v7.205c0 .302-.24.634-.537.736m6.561-2.361l-.923.344c-.294.109-.534-.05-.534-.353v-7.205c0-.304.239-.638.534-.747l.923-.344c.295-.11.533.047.534.35v7.205c0 .303-.239.64-.534.75m-191.355.344c-.308-.114-.615-.228-.923-.344-.295-.11-.534-.446-.534-.75v-7.205c0-.304.239-.46.534-.349l.923.343c.295.109.534.443.534.748v7.204c0 .304-.239.462-.534.353m6.567 2.337l-.929-.319c-.297-.103-.538-.434-.538-.737v-7.204c0-.305.242-.467.538-.364l.929.319c.296.101.537.43.538.734v7.204c-.001.304-.241.468-.538.367m6.61 2.165l-.935-.295c-.298-.095-.54-.419-.541-.723v-7.204c.001-.304.242-.473.541-.379.311.1.623.198.935.295.299.094.541.416.541.72v7.205c0 .303-.242.474-.541.381" fill="#007538"/><path fill-rule="evenodd" clip-rule="evenodd" d="M261.882 428.793a343.237 343.237 0 0 0 8.985-12.924c1.249-1.864 4.118-1.864 5.366 0a344.412 344.412 0 0 0 8.985 12.924c1.322 1.795-.164 4.928-2.649 5.344a55.877 55.877 0 0 1-18.039 0c-2.484-.416-3.97-3.55-2.648-5.344" fill="#6E3BAE"/><path fill-rule="evenodd" clip-rule="evenodd" d="M234.356 164.393c0 16.785-13.648 30.391-30.483 30.391-16.836 0-30.483-13.606-30.483-30.391 0-16.785 13.647-30.392 30.483-30.392 16.835 0 30.483 13.607 30.483 30.392" fill="#fff"/><path fill-rule="evenodd" clip-rule="evenodd" d="M225.181 164.393c0 11.733-9.539 21.245-21.309 21.245-11.768 0-21.308-9.512-21.308-21.245s9.54-21.245 21.308-21.245c11.77 0 21.309 9.512 21.309 21.245" fill="#1D1D1B"/><path fill-rule="evenodd" clip-rule="evenodd" d="M222.582 178.962l-17.754-9.619c-3.937-2.132-3.937-7.767 0-9.9l17.754-9.619c3.766-2.04 8.349.679 8.349 4.951v19.236c0 4.273-4.583 6.991-8.349 4.951m151.129-14.569c0 16.785-13.649 30.391-30.483 30.391-16.836 0-30.484-13.606-30.484-30.391 0-16.785 13.648-30.392 30.484-30.392 16.834 0 30.483 13.607 30.483 30.392" fill="#fff"/><path fill-rule="evenodd" clip-rule="evenodd" d="M364.536 164.393c0 11.733-9.54 21.245-21.309 21.245-11.768 0-21.308-9.512-21.308-21.245s9.54-21.245 21.308-21.245c11.769 0 21.309 9.512 21.309 21.245" fill="#1D1D1B"/><path fill-rule="evenodd" clip-rule="evenodd" d="M361.937 178.962l-17.754-9.619c-3.938-2.132-3.938-7.767 0-9.9l17.754-9.619c3.766-2.04 8.349.679 8.349 4.951v19.236c0 4.273-4.583 6.991-8.349 4.951" fill="#fff"/><path fill-rule="evenodd" clip-rule="evenodd" d="M277.258 136.525l29.997 51.801h-67.41l29.997-51.801c1.648-2.845 5.768-2.845 7.416 0" fill="#FFED9F"/><path fill-rule="evenodd" clip-rule="evenodd" d="M239.845 188.131h67.41l-30.597 32.2a4.29 4.29 0 0 1-6.216 0l-30.597-32.2z" fill="#FFDF5A"/><path fill-rule="evenodd" clip-rule="evenodd" d="M277.258 157.7l17.896 30.903h-43.208l17.896-30.903c1.648-2.846 5.768-2.846 7.416 0" fill="#DF5297"/><path fill-rule="evenodd" clip-rule="evenodd" d="M270.442 207.427l-18.495-19.464h43.206l-18.495 19.464a4.29 4.29 0 0 1-6.216 0" fill="#F37AA0"/><defs><linearGradient id="paint0_linear" x1="545" y1="272" x2="0" y2="272" gradientUnits="userSpaceOnUse"><stop stop-color="#220D5B"/><stop offset="1" stop-color="#894EC9"/></linearGradient><linearGradient id="paint1_linear" x1="441" y1="271.692" x2="105" y2="271.692" gradientUnits="userSpaceOnUse"><stop stop-color="#802CC7"/><stop offset="1" stop-color="#B261EF"/></linearGradient><linearGradient id="paint2_linear" x1="377.565" y1="399.703" x2="338.644" y2="313.494" gradientUnits="userSpaceOnUse"><stop stop-color="#16951C" stop-opacity=".51"/><stop offset="1" stop-color="#33D180" stop-opacity=".4"/></linearGradient><linearGradient id="paint3_linear" x1="381.043" y1="443.774" x2="273.099" y2="325.488" gradientUnits="userSpaceOnUse"><stop stop-color="#16951C" stop-opacity=".51"/><stop offset="1" stop-color="#33D180" stop-opacity=".4"/></linearGradient><linearGradient id="paint4_linear" x1="381" y1="255" x2="166" y2="185.5" gradientUnits="userSpaceOnUse"><stop stop-color="#16951C" stop-opacity=".51"/><stop offset="1" stop-color="#33D180" stop-opacity=".4"/></linearGradient></defs></svg>