<svg width="127" height="25" viewBox="0 0 127 25" xmlns="http://www.w3.org/2000/svg"><title>Cuckoo Copy 2</title><path d="M0 13.721c0-1.528.297-2.986.892-4.373.594-1.387 1.392-2.579 2.393-3.576 1-.997 2.197-1.791 3.59-2.384a11.096 11.096 0 0 1 4.389-.888c1.534 0 2.909.237 4.123.71 1.214.473 2.36 1.203 3.437 2.19a.578.578 0 0 1 .213.458.58.58 0 0 1-.187.428L16.355 8.82a.589.589 0 0 1-.406.152.516.516 0 0 1-.39-.163c-1.216-1.143-2.657-1.714-4.32-1.714-1.778 0-3.266.637-4.461 1.91-1.196 1.275-1.794 2.805-1.794 4.593 0 1.767.603 3.277 1.81 4.53 1.206 1.254 2.698 1.88 4.476 1.88.759 0 1.52-.133 2.285-.4a6.29 6.29 0 0 0 2.004-1.125c.104-.093.245-.134.421-.123.177.01.312.066.406.168l2.495 2.608a.535.535 0 0 1 .156.399c0 .183-.06.33-.183.443C16.782 23.992 14.252 25 11.264 25a11.37 11.37 0 0 1-3.003-.399 11.114 11.114 0 0 1-2.698-1.12 11.163 11.163 0 0 1-2.27-1.757 11.12 11.12 0 0 1-1.761-2.279 11.342 11.342 0 0 1-1.128-2.708A11.3 11.3 0 0 1 0 13.72m22.294 2.67V3.59c0-.151.06-.287.182-.409a.569.569 0 0 1 .41-.181h3.816c.172 0 .314.058.425.174a.58.58 0 0 1 .168.416v12.558c0 1.09.367 2.013 1.103 2.77.735.756 1.654 1.134 2.758 1.134 1.113 0 2.045-.378 2.796-1.135.75-.756 1.126-1.679 1.126-2.769V3.59A.581.581 0 0 1 35.67 3h3.819c.151 0 .287.06.409.181a.565.565 0 0 1 .182.409v12.8a8.171 8.171 0 0 1-1.196 4.298 8.783 8.783 0 0 1-3.25 3.147A8.925 8.925 0 0 1 31.156 25a8.838 8.838 0 0 1-4.454-1.165 8.706 8.706 0 0 1-3.226-3.147 8.242 8.242 0 0 1-1.182-4.297m21.292-2.67c0-1.528.297-2.986.891-4.373.595-1.387 1.392-2.579 2.393-3.576 1.001-.997 2.198-1.791 3.59-2.384a11.095 11.095 0 0 1 4.39-.888c1.534 0 2.908.237 4.123.71 1.214.473 2.36 1.203 3.437 2.19a.58.58 0 0 1 .213.458.58.58 0 0 1-.187.428L59.94 8.82a.589.589 0 0 1-.405.152.516.516 0 0 1-.39-.163c-1.217-1.143-2.657-1.714-4.32-1.714-1.779 0-3.266.637-4.461 1.91-1.196 1.275-1.794 2.805-1.794 4.593 0 1.767.603 3.277 1.81 4.53 1.205 1.254 2.698 1.88 4.476 1.88.759 0 1.52-.133 2.284-.4a6.286 6.286 0 0 0 2.005-1.125c.104-.093.244-.134.421-.123.177.01.312.066.406.168l2.495 2.608a.535.535 0 0 1 .156.399c0 .183-.06.33-.183.443C60.367 23.992 57.837 25 54.85 25c-1.027 0-2.027-.133-3.003-.399a11.118 11.118 0 0 1-2.698-1.12 11.173 11.173 0 0 1-2.271-1.757 11.126 11.126 0 0 1-1.76-2.279 11.342 11.342 0 0 1-1.128-2.708 11.3 11.3 0 0 1-.404-3.016M65.88 24.248V3.768c0-.216.068-.397.206-.546A.674.674 0 0 1 66.601 3h3.535c.197 0 .366.077.509.23a.766.766 0 0 1 .213.537v8.254l6.928-8.699c.172-.215.37-.322.593-.322h3.929c.294 0 .504.136.631.407a.7.7 0 0 1-.068.759l-7.308 9.205 7.963 10.432a.723.723 0 0 1 .137.415.656.656 0 0 1-.077.352.697.697 0 0 1-.654.4h-4.309a.954.954 0 0 1-.335-.07c-.122-.046-.198-.094-.228-.145l-7.202-9.865v9.358a.738.738 0 0 1-.213.53.681.681 0 0 1-.509.222h-3.535a.685.685 0 0 1-.515-.215.744.744 0 0 1-.206-.537m23.99-10.475c0 1.701.608 3.166 1.825 4.394 1.216 1.228 2.668 1.841 4.354 1.841 1.706 0 3.168-.613 4.385-1.841 1.216-1.228 1.824-2.693 1.824-4.394 0-1.722-.608-3.2-1.824-4.432-1.217-1.233-2.679-1.85-4.385-1.85-1.686 0-3.138.617-4.354 1.85-1.217 1.233-1.825 2.71-1.825 4.432m-4.953 0a11.5 11.5 0 0 1 .394-3.005c.262-.976.63-1.876 1.106-2.7a11.182 11.182 0 0 1 1.734-2.273A11.022 11.022 0 0 1 90.4 4.033c.818-.483 1.709-.86 2.673-1.129.964-.27 1.956-.404 2.976-.404 1.524 0 2.976.295 4.354.884 1.378.59 2.565 1.388 3.56 2.394.994 1.006 1.784 2.206 2.37 3.599.585 1.392.878 2.858.878 4.396a11.2 11.2 0 0 1-.878 4.393c-.586 1.39-1.376 2.583-2.37 3.581-.995.998-2.182 1.79-3.56 2.375a11.03 11.03 0 0 1-4.354.878c-1.525 0-2.976-.293-4.354-.878-1.379-.586-2.562-1.378-3.552-2.376-.99-.997-1.774-2.191-2.355-3.581a11.28 11.28 0 0 1-.87-4.392m29.307-4.758c0 1.087.393 2.023 1.18 2.808.788.785 1.727 1.177 2.818 1.177 1.104 0 2.05-.392 2.837-1.177.787-.785 1.18-1.72 1.18-2.808 0-1.1-.393-2.045-1.18-2.833-.787-.788-1.733-1.182-2.837-1.182-1.091 0-2.03.394-2.817 1.182-.788.788-1.181 1.732-1.181 2.833m-4.76-.122a9.131 9.131 0 0 1 1.18-4.5 8.819 8.819 0 0 1 1.364-1.794 8.673 8.673 0 0 1 1.769-1.39 8.725 8.725 0 0 1 2.102-.89A8.632 8.632 0 0 1 118.22 0a8.6 8.6 0 0 1 3.426.698 8.696 8.696 0 0 1 2.799 1.888 8.9 8.9 0 0 1 1.864 2.839A8.89 8.89 0 0 1 127 8.893a8.86 8.86 0 0 1-.69 3.465 8.79 8.79 0 0 1-1.865 2.826 8.71 8.71 0 0 1-2.8 1.873 8.65 8.65 0 0 1-3.424.693 8.65 8.65 0 0 1-3.425-.693 8.644 8.644 0 0 1-2.793-1.874c-.779-.787-1.396-1.729-1.853-2.825a8.922 8.922 0 0 1-.685-3.465" fill-rule="evenodd" opacity=".25"/></svg>